<?xml version="1.0" standalone="no"?><!DOCTYPE svg PUBLIC "-//W3C//DTD SVG 1.1//EN" "http://www.w3.org/Graphics/SVG/1.1/DTD/svg11.dtd"><svg t="1733492701774" class="icon" viewBox="0 0 1024 1024" version="1.1" xmlns="http://www.w3.org/2000/svg" p-id="10369" xmlns:xlink="http://www.w3.org/1999/xlink" width="200" height="200"><path d="M0 0m512 0l0 0q512 0 512 512l0 0q0 512-512 512l0 0q-512 0-512-512l0 0q0-512 512-512Z" fill="#F5DF4D" p-id="10370"></path><path d="M707.342336 709.31456l-60.19072-147.92704a41.604096 41.604096 0 0 1-22.76352 15.99488c-22.29248 6.07232-24.07424 4.70016-39.70048 20.6336a40.674304 40.674304 0 0 1-50.92352 5.95968 40.63232 40.63232 0 0 0-43.55072 0 40.686592 40.686592 0 0 1-50.93376-5.95968c-15.08352-15.36-16.7936-14.336-39.65952-20.60288a41.504768 41.504768 0 0 1-22.59968-15.7696l-60.416 147.68128a16.381952 16.381952 0 0 0 15.80032 22.528l53.95456-2.048 37.08928 39.2192a16.375808 16.375808 0 0 0 11.452416 5.10976 16.384 16.384 0 0 0 11.710464-4.48512 16.622592 16.622592 0 0 0 3.93216-5.74464l61.5936-150.6304 61.2864 150.6304a16.381952 16.381952 0 0 0 27.06432 5.12l37.12-39.19872 53.95456 2.048a16.37888 16.37888 0 0 0 15.54432-9.530368 16.381952 16.381952 0 0 0 1.4848-6.228992 16.61952 16.61952 0 0 0-1.24928-6.79936zM511.983616 495.616a65.533952 65.533952 0 0 0 12.785664-129.81248A65.532928 65.532928 0 0 0 446.447616 430.08a65.536 65.536 0 0 0 65.536 65.536z" fill="#2E2E30" opacity=".4" p-id="10371"></path><path d="M690.79552 406.24128a42.50624 42.50624 0 0 0-10.67008-40.54016c-20.89984-21.26848-18.91328-17.7664-26.5728-46.83776a41.641984 41.641984 0 0 0-29.15328-29.696c-28.54912-7.79264-25.10848-5.75488-46.08-27.04384a40.745984 40.745984 0 0 0-39.71072-10.84416c-28.59008 7.7824-24.576 7.7824-53.1968 0a40.759296 40.759296 0 0 0-39.82336 10.86464c-20.89984 21.27872-17.408 19.2512-46.01856 27.04384a41.64096 41.64096 0 0 0-29.15328 29.696c-7.64928 29.07136-5.67296 25.6-26.5728 46.848a42.446848 42.446848 0 0 0-10.684416 18.85696 42.445824 42.445824 0 0 0 0.014336 21.67296c7.64928 29.04064 7.65952 24.9856 0 54.08768a42.519552 42.519552 0 0 0 10.67008 40.51968c20.89984 21.27872 18.91328 17.7664 26.624 46.848a41.611264 41.611264 0 0 0 29.15328 29.696c22.86592 6.26688 24.576 5.24288 39.65952 20.60288a40.695808 40.695808 0 0 0 50.93376 5.95968 40.63232 40.63232 0 0 1 43.55072 0 40.685568 40.685568 0 0 0 50.92352-5.95968c15.64672-15.9232 17.408-14.55104 39.72096-20.62336a41.61024 41.61024 0 0 0 29.15328-29.696c7.65952-29.0816 5.67296-25.6 26.5728-46.848a42.487808 42.487808 0 0 0 10.67008-40.52992c-7.65952-29.04064-7.66976-24.9856-0.01024-54.07744zM511.98464 528.384a98.301952 98.301952 0 0 1-96.41472-117.482496 98.300928 98.300928 0 0 1 77.236224-77.236224 98.308096 98.308096 0 0 1 100.9152 41.79968A98.304 98.304 0 0 1 511.98464 528.384z" fill="#2E2E30" p-id="10372"></path></svg>