<?xml version="1.0" standalone="no"?>
<!DOCTYPE svg PUBLIC "-//W3C//DTD SVG 1.1//EN" "http://www.w3.org/Graphics/SVG/1.1/DTD/svg11.dtd">
<svg t="1733493103473" class="icon" viewBox="0 0 1024 1024" version="1.1" xmlns="http://www.w3.org/2000/svg" p-id="11397" xmlns:xlink="http://www.w3.org/1999/xlink" width="448" height="512">
  <path d="M512 128q104.5 0 192.75 51.5t139.75 139.75 51.5 192.75-51.5 192.75-139.75 139.75-192.75 51.5-192.75-51.5-139.75-139.75-51.5-192.75 51.5-192.75 139.75-139.75 192.75-51.5zm137 260.5q-1 0.5-4.75 4.75t-6.75 4.75q1 0 2.25-2.5t2.5-5.5 1.75-3.5q3-3.5 11-7.5 7-3 26-6 17-4 25.5 5.5-1-1 4.75-6.5t7.25-6q1.5-1 7.5-2.25t7.5-3.75l1-11q-6 0.5-8.75-3.5t-3.25-10.5q0 1-3 4 0-3.5-2.25-4t-5.75 0.5-4.5 0.5q-5-1.5-7.5-3.75t-4-8.25-2-7.5q-1-2.5-4.75-5.25t-4.75-5.25q-0.5-1-1.25-2.75t-1.5-3.25-2-2.75-2.75-1.25-3.5 2.5-3.75 5-2.25 2.5q-1.5-1-3-0.75t-2.25 0.5-2.25 1.5-2.5 1.75q-1.5 1-4.25 1.5t-4.25 1q7.5-2.5-0.5-5.5-5-2-8-1.5 4.5-2 3.75-6t-4.25-7l2.5 0q-0.5-2-4.25-4.25t-8.75-4.25-6.5-3q-4-2.5-17-4.75t-16.5 2.5q-2.5 3-2.25 5.25t2 7 1.75 6.25q0.5 3-2.75 6.5t-3.25 6q0 3.5 7 7.75t5 10.75q-1.5 4-8 8t-8 6q-2.5 4-0.75 9.25t5.25 8.25q1 1 0.75 2t-1.75 2.25-2.75 2-3.25 1.75l-1.5 1q-5.5 2.5-10.25-3t-6.75-13q-3.5-12.5-8-15-11.5-4-14.5 0.5-2.5-6.5-20.5-13-12.5-4.5-29-2 3-0.5 0-7.5-3.5-7.5-9.5-6 1.5-3 2-8.75t0.5-6.75q1.5-6.5 6-11.5..." p-id="11398"></path>
</svg>
