<?xml version="1.0" standalone="no"?><!DOCTYPE svg PUBLIC "-//W3C//DTD SVG 1.1//EN" "http://www.w3.org/Graphics/SVG/1.1/DTD/svg11.dtd"><svg t="1733492611719" class="icon" viewBox="0 0 1024 1024" version="1.1" xmlns="http://www.w3.org/2000/svg" p-id="5276" xmlns:xlink="http://www.w3.org/1999/xlink" width="200" height="200"><path d="M980.266667 438.4c-12.8-22.4-30.933333-41.6-53.333334-55.466667 21.333333-75.733333-16-155.733333-88.533333-187.733333-24.533333-9.6-50.133333-12.8-75.733333-8.533333-14.933333-48-59.733333-80-108.8-81.066667-64 1.066667-115.2 54.4-115.2 118.4v582.4c-1.066667 59.733333 45.866667 108.8 105.6 109.866667 40.533333 0 76.8-23.466667 93.866666-59.733334 14.933333 5.333333 30.933333 7.466667 46.933334 7.466667 82.133333 0 149.333333-70.4 149.333333-156.8 0-17.066667-2.133333-34.133333-7.466667-50.133333 3.2-2.133333 5.333333-3.2 8.533334-5.333334 67.2-45.866667 87.466667-139.733333 44.8-213.333333z m-68.266667 183.466667c-5.333333 4.266667-11.733333 7.466667-18.133333 9.6-9.6 4.266667-13.866667 14.933333-9.6 24.533333 7.466667 16 10.666667 34.133333 10.666666 51.2 0 66.133333-50.133333 119.466667-112 119.466667-16 0-32-3.2-46.933333-10.666667-1.066667-1.066667-2.133333-1.066667-4.266667-2.133333-8.533333-3.2-19.2 0-23.466666 8.533333-1.066667 2.133333-1.066667 3.2-2.133334 5.333333-7.466667 29.866667-34.133333 50.133333-65.066666 51.2-38.4-1.066667-68.266667-34.133333-67.2-72.533333V619.733333h101.333333l53.333333 56.533334c-3.2 6.4-4.266667 13.866667-4.266666 21.333333 1.066667 29.866667 25.6 52.266667 54.4 52.266667 29.866667-1.066667 52.266667-25.6 52.266666-54.4-1.066667-28.8-24.533333-52.266667-53.333333-52.266667-8.533333 0-16 2.133333-23.466667 6.4l-57.6-60.8c-3.2-4.266667-8.533333-5.333333-13.866666-5.333333H574.933333V533.333333H800c7.466667 21.333333 26.666667 35.2 50.133333 36.266667 29.866667-1.066667 53.333333-26.666667 52.266667-57.6-1.066667-28.8-23.466667-51.2-52.266667-52.266667-22.4 0-42.666667 14.933333-50.133333 36.266667H574.933333v-50.133333h108.8c5.333333 0 10.666667-2.133333 13.866667-5.333334l57.6-60.8c7.466667 4.266667 14.933333 5.333333 23.466667 5.333334 29.866667 1.066667 55.466667-22.4 56.533333-52.266667s-22.4-55.466667-52.266667-56.533333-55.466667 22.4-56.533333 52.266666v2.133334c0 7.466667 1.066667 14.933333 4.266667 21.333333l-53.333334 56.533333H576v-181.333333c-1.066667-44.8 33.066667-82.133333 77.866667-83.2 38.4 1.066667 70.4 28.8 76.8 66.133333 1.066667 3.2 2.133333 5.333333 3.2 7.466667l2.133333 2.133333c4.266667 6.4 12.8 8.533333 20.266667 6.4 22.4-6.4 46.933333-5.333333 68.266666 3.2 57.6 23.466667 85.333333 91.733333 64 152.533334l-1.066666 3.2c-3.2 9.6 1.066667 19.2 10.666666 23.466666 21.333333 9.6 39.466667 26.666667 51.2 46.933334 32 57.6 16 130.133333-37.333333 166.4z m-149.333333 74.666666c1.066667-8.533333 8.533333-13.866667 17.066666-12.8 8.533333 1.066667 13.866667 8.533333 12.8 17.066667-1.066667 7.466667-7.466667 12.8-14.933333 12.8-8.533333 0-14.933333-7.466667-14.933333-17.066667z m71.466666-182.4c1.066667-8.533333 8.533333-14.933333 17.066667-13.866666s14.933333 8.533333 13.866667 17.066666c-1.066667 7.466667-7.466667 13.866667-14.933334 13.866667-9.6 0-16-8.533333-16-17.066667zM762.666667 330.666667c1.066667-8.533333 8.533333-14.933333 17.066666-13.866667s14.933333 8.533333 13.866667 17.066667c-1.066667 7.466667-7.466667 13.866667-14.933333 13.866666-9.6 0-16-8.533333-16-17.066666zM371.2 106.666667c-50.133333 1.066667-93.866667 33.066667-108.8 81.066666-25.6-4.266667-52.266667-1.066667-75.733333 8.533334C114.133333 227.2 75.733333 307.2 98.133333 384c-22.4 13.866667-40.533333 32-53.333333 55.466667C1.066667 510.933333 21.333333 605.866667 90.666667 653.866667c2.133333 2.133333 5.333333 3.2 8.533333 5.333333-5.333333 16-7.466667 33.066667-7.466667 50.133333 0 86.4 67.2 156.8 149.333334 156.8 16 0 32-2.133333 46.933333-7.466666 17.066667 36.266667 53.333333 59.733333 93.866667 59.733333 59.733333-1.066667 106.666667-50.133333 105.6-109.866667V225.066667c0-64-51.2-117.333333-116.266667-118.4z m77.866667 700.8c1.066667 38.4-28.8 70.4-67.2 72.533333-30.933333-1.066667-57.6-22.4-65.066667-52.266667 0-1.066667-1.066667-3.2-2.133333-4.266666-4.266667-8.533333-14.933333-11.733333-23.466667-8.533334-1.066667 1.066667-3.2 1.066667-4.266667 2.133334-14.933333 7.466667-29.866667 10.666667-46.933333 10.666666-61.866667 0-112-53.333333-112-119.466666 0-18.133333 3.2-35.2 10.666667-51.2 2.133333-4.266667 2.133333-9.6 0-14.933334-2.133333-5.333333-5.333333-8.533333-10.666667-10.666666-6.4-3.2-12.8-6.4-18.133333-9.6C57.6 584.533333 42.666667 513.066667 76.8 457.6c11.733333-21.333333 29.866667-37.333333 51.2-46.933333 9.6-4.266667 13.866667-13.866667 10.666667-23.466667l-1.066667-4.266667c-22.4-59.733333 5.333333-126.933333 64-152.533333 21.333333-8.533333 45.866667-10.666667 68.266667-3.2 7.466667 2.133333 16 0 20.266666-6.4l2.133334-2.133333c2.133333-2.133333 3.2-5.333333 3.2-7.466667 6.4-37.333333 38.4-65.066667 76.8-66.133333 44.8 1.066667 78.933333 38.4 77.866666 83.2l-1.066666 579.2z" fill="#2c2c2c" p-id="5277"></path></svg>