<?xml version="1.0" standalone="no"?><!DOCTYPE svg PUBLIC "-//W3C//DTD SVG 1.1//EN" "http://www.w3.org/Graphics/SVG/1.1/DTD/svg11.dtd"><svg t="1733492502184" class="icon" viewBox="0 0 1024 1024" version="1.1" xmlns="http://www.w3.org/2000/svg" p-id="1561" xmlns:xlink="http://www.w3.org/1999/xlink" width="200" height="200"><path d="M525.61 340.61a39.3 39.3 0 1 0-39.35-39.35 39.27 39.27 0 0 0 39.35 39.35m-66.4 32.94A11.3 11.3 0 0 0 451 360l-32.77-7.9a11.17 11.17 0 0 0-13.56 8.23l-27.54 113.88a11.21 11.21 0 0 0 8.29 13.58l32.78 7.84a11 11 0 0 0 13.5-8.18z m188 100.93a18.94 18.94 0 0 0-9.57-16.48l1.92-71.81-0.11-0.67a8.91 8.91 0 0 0-10.18-7.45c-4.52 0.71-7.41 4.68-7.67 9.21l-1.76 65.9-50.36-11.11-15.15-61.75c-7.25-34.49-40.16-33.66-40.16-33.66-32.05-0.81-40.07 32.86-40.07 32.86L390.92 728.8a36.1 36.1 0 0 0-0.41 5.57 27.62 27.62 0 0 0 54.09 7.9l47.53-196.58 45.23 195.41a27.57 27.57 0 0 0 54.32-6.73 34.4 34.4 0 0 0-0.52-6.05L529 468.71l5.25-22.9 4 18a18 18 0 0 0 14.42 12.8l66.14 15.05-6.92 259.23v0.59a9 9 0 0 0 10.32 7.52 9.2 9.2 0 0 0 7.69-9.15l6.89-258.65a18.7 18.7 0 0 0 10.41-16.73z" fill="#231815" p-id="1562"></path></svg>